<svg xmlns="http://www.w3.org/2000/svg" data-v-3acb27dc="" class="sketchy-canvas visible" width="1456" height="739" stroke-linecap="round" xmlns:xlink="http://www.w3.org/1999/xlink"><defs><clipPath id="ygc169_12_0"><rect x="25" y="25" width="1405.05" height="689" transform="matrix(1, 0, 0, 1, 0, 0)"/></clipPath></defs><g><path d="M134.03169658517223 101.02719221589517 M135.82850478847112 97.58328970842994 C131.00493293905598 139.99708267835527, 133.62535962673692 181.68906022039317, 130.76504442250183 268.65107958359573 M131.00583755115318 266.20560096944575 C146.03016577099802 267.5470399243161, 159.9947163786879 268.43181804769665, 188.2419777574537 270.55876848633824" stroke="rgb(128, 0, 0)" stroke-width="4" fill="none"/></g><g><path d="M191.30518388970535 268.0256452098239 L181.75897496586492 274.43337580915266 L190.62067183240293 266.3405652535896 L184.4563396838269 262.7532574828024 L192.9832101076668 268.51778171765216" stroke="none" stroke-width="0" fill="rgb(128, 0, 0)"/><path d="M191.75121289827408 270.1947597893135 M194.11144700331445 269.9588934286932 C192.02774356435086 271.4430943568961, 186.49805091832192 270.53283662753194, 185.57795820247912 274.13932122325923 M183.7713444210624 273.34110217362434 C185.14780193063962 271.44319052481217, 185.64632980713063 271.31654749195263, 189.46188700138413 268.2082562543356 M187.9867530925203 269.34562567282353 C187.7710156774769 268.10981788986896, 186.72636496297594 264.6942844550072, 183.59791306674518 263.3863737672793 M184.45465035542875 263.28711259641955 C187.60113514630166 263.4640658245944, 190.69371610238483 265.10402355002816, 195.18142831751004 268.6814856864985" stroke="rgb(128, 0, 0)" stroke-width="4" fill="none"/></g><g><path d="M503.4247111616671 271.32395059886704 M507.047560207967 267.47263500628753 C539.0410402311685 269.7176029932856, 573.6921062498972 267.7576283784251, 597.9745792433636 268.8047756411536 M505.2289265404896 267.0535427116616 C528.1739727337192 269.24390623417406, 549.1048124110034 269.0726736533948, 596.8367093690958 268.29854915871255 M598.3154780484367 271.4472069586172 C596.6466803363045 291.14970591828904, 595.3567012550952 314.1551014402917, 599.4028613142804 328.59364608960453 M596.7603371894744 267.3970538797227 C596.7083282351502 290.995822809192, 596.1647201744505 312.92028684236186, 596.467258222477 329.8449228047315 M596.6439565464304 329.3864055722692 C427.4578083066109 334.39963784614724, 260.26913312576687 332.71701913253673, 135.686049264933 331.0535913923428 M596.9601394129323 331.221890421841 C414.2580906927264 334.24031029443887, 233.2497488779901 333.9325824782997, 136.11813928663616 329.98974315458236 M137.2391824217404 328.5704029200405 C134.6978791622332 359.68932392232716, 134.72145075038324 386.1123035242083, 138.14433891694154 401.6299292028585 M135.94628537549454 330.71585530637867 C135.6304069938376 348.1334806457289, 135.41549301050298 366.7215388218756, 136.5043340504142 404.22529005008255 M136.7209126557773 404.67862276564233 C148.55092259674552 403.75147666471935, 160.5809968457776 400.39625602629934, 189.6798589942938 404.1659180869476 M136.16641537229492 401.8659137087973 C147.02586059020166 402.2545519842156, 158.338768024953 403.3504455521774, 187.93822218311337 403.05086062636946" stroke="rgb(51, 102, 255)" stroke-width="4" fill="none"/></g><g><path d="M191.08811568177234 403.823581645581 L184.54453096860158 408.3346255728436 L187.58938808721123 401.5001142965562 L181.20951733685192 395.9713601157142 L192.79896959013712 401.64888775970496" stroke="none" stroke-width="0" fill="rgb(51, 102, 255)"/><path d="M193.34076039283175 401.3979540241128 M195.36781649635435 404.11259706234773 C190.01448356708482 403.71711527794844, 187.62064970504653 404.98259331081783, 185.48368543951568 408.89517013245313 M183.00359598721207 407.77357204793276 C184.85720923365378 406.2298644066237, 186.5557795678619 405.2775269066493, 188.33821474865925 403.9967898702157 M188.39205302410525 403.24204756791795 C187.73539279887981 401.21136779233234, 185.72617474338134 401.04095895450007, 184.64917218028287 398.2120412664019 M183.45026852758699 398.20096859947057 C186.42481156453917 398.73608721303765, 186.70765487573647 400.40869290847604, 192.50079769818697 403.3942829920098" stroke="rgb(51, 102, 255)" stroke-width="4" fill="none"/></g><g><path d="M503.7773204549987 404.83340611486017 M504.50884078656736 400.17484631510314 C536.9882594416923 404.525587591744, 565.800163615833 404.6045068326224, 599.4854344121126 403.62463719735234 M505.21531678359446 403.5727762355487 C531.4073150001898 402.83200063117494, 558.9522563404298 404.0232879289121, 597.2229085134414 404.23759957005484 M597.7673075677154 400.0719656921743 C598.0928377659743 425.52930391989605, 597.313635419586 452.74036930247604, 599.0193799186324 469.1330408817981 M596.9440298995482 403.39742566291284 C595.2403095154473 423.46723060179056, 597.698025167388 444.9430895383949, 595.3552404974009 467.03586013534454 M597.5070062858124 468.26439748963344 C487.6727213637201 468.1125422076151, 377.75122203545624 468.34770832407236, 141.5923985849826 468.4718103477958 M596.1829336978325 467.8083119168219 C437.30023233793804 468.2070186726818, 280.0271912291762 467.9572529726563, 141.99824519949158 467.046362260552 M141.60860784613624 467.67818044242625 C141.8882671540806 492.4605723614051, 139.4300418388031 514.1802783184803, 140.43225685780797 545.2711972687423 M143.8536205328091 467.59290225875856 C143.7043895528529 485.3177827651505, 142.53434678860887 505.08681346354376, 143.9600764451517 544.5349101218429 M141.72517076209496 547.3505689743632 C159.19709766034472 545.314821518824, 176.71307895725107 546.1382188424767, 186.99387961190035 543.865322443297 M142.84163378725677 545.7932672080427 C159.71559558721617 545.1400653714733, 174.23511052754893 545.4634380985608, 190.22416403936282 546.3257794166452" stroke="rgb(51, 102, 255)" stroke-width="4" fill="none"/></g><g><path d="M192.92684714139637 544.1074967975738 L185.20357682474025 549.625817322237 L187.4437447443844 543.7074164036844 L181.44030955913948 540.3825681995669 L191.2168199406727 548.5344504921964" stroke="none" stroke-width="0" fill="rgb(51, 102, 255)"/><path d="M193.61984452744798 543.464951027774 M195.04301209034776 546.9815293967471 C192.61293697784106 548.5357793903041, 189.83630770259086 548.530050790559, 183.53738685467815 552.5434786196193 M183.4767324946208 551.7172584790302 C185.1996700628734 550.3962360478109, 186.40162489951533 548.7087270593901, 189.50931438771954 546.5266441898164 M189.48087874439884 546.2438575705368 C187.75879779496486 543.8077898874266, 186.8699101763703 542.2768325408138, 183.7124614479426 540.5798114130884 M184.83145941741512 539.6786409309365 C189.16429224751653 541.8256242678295, 192.146399012289 544.749318818987, 194.6317919580217 546.5625657813749" stroke="rgb(51, 102, 255)" stroke-width="4" fill="none"/></g><g><path d="M505.62222855295175 544.8708443143723 M504.44704496450333 545.3520824360436 C528.0904494801711 548.6547545416058, 551.9393780771692 548.5307430873812, 598.0695739444695 543.5662393277825 M596.5540269451361 548.4345869867044 C601.3453700970322 568.6780813644365, 600.6737443749186 588.2255983602801, 595.8596465072192 606.4988097221014 M599.480845004801 609.6947537026351 C459.4569064556571 610.3320002826061, 317.8202700668637 612.43691986186, 147.93507666981856 608.6636471324284 M148.940653491927 610.1751818861964 C143.8648194983677 630.6941648831169, 145.10968623804214 652.7535617272241, 146.98009236945379 672.270550382747 M145.9194756390269 677.1333571658395 C163.19768988845883 675.3686831093055, 177.51269992624015 675.9416149375738, 194.9727757277246 674.5819900374607" stroke="rgb(51, 102, 255)" stroke-width="4" fill="none"/></g><g><path d="M196.22717762071832 673.100994388364 L186.48125281630678 679.285546421087 L196.09839433761417 674.8832004293384 L188.68405406138896 670.4630103195913 L196.96751516570063 673.5284789175998" stroke="none" stroke-width="0" fill="rgb(51, 102, 255)"/><path d="M200.37520261163135 673.3044841456668 M199.7711802974358 673.0831975722049 C194.27337562005192 675.8989616192414, 194.1631744731154 677.8420606218216, 187.77571288991876 679.1181845597939 M188.13315968876213 680.2083546270175 C190.06158350319566 677.7825424467145, 192.16943832052064 677.0704066213908, 193.0987125563356 675.2398945427931 M193.68888023876505 674.4499524467043 C192.35021934236036 673.0633693439213, 190.90302793929422 673.366823647454, 188.90769216287632 669.2676491646048 M189.2366611420024 668.5320138692624 C192.1911473788561 670.2288803160385, 196.35598006136374 673.8525544016735, 198.87348877152567 672.8835407361414" stroke="rgb(51, 102, 255)" stroke-width="4" fill="none"/></g><g><path d="M954.6958523576174 99.05415993111222 M955.292432964779 98.52012803448663 C953.3831567360177 145.10801803387022, 955.0618918315608 193.11048022157004, 953.33742747461 248.93732875311025 M958.0081525682804 246.52736236721998 C971.8603213496206 249.42751366405096, 991.3374938187831 247.13465293777517, 1011.216089147227 247.58939334346266" stroke="rgb(128, 0, 0)" stroke-width="4" fill="none"/></g><g><path d="M1018.5021115012103 245.72043978141423 L1007.8768838505802 252.62633088501624 L1010.9353298175654 247.8634349560231 L1006.1357736125068 241.65697007549562 L1019.4742860797412 246.25445351097235" stroke="none" stroke-width="0" fill="rgb(128, 0, 0)"/><path d="M1014.08905810335 247.5763222371964 M1017.7516922157818 249.0882504140199 C1014.4141766926858 249.94195561830387, 1011.6636111082671 251.11799124007365, 1007.5126064223737 252.727293293416 M1006.3867878629944 253.99583687375258 C1008.95296582796 251.89297058609824, 1009.2964056129607 248.9522792891242, 1010.7971484675484 247.7007178864373 M1011.7784469155479 248.31584284115283 C1009.941832061996 246.83843914446385, 1006.720344023982 245.17434276536565, 1005.8669677327965 243.62485979637916 M1005.3920855327733 243.0558553286539 C1009.538147966003 243.26112053348658, 1012.448394854817 244.1967476084632, 1015.7850817466912 249.89847339756633" stroke="rgb(128, 0, 0)" stroke-width="4" fill="none"/></g><g><path d="M1034.318699297612 400.34986222265 M1033.5663723497682 405.4041856404411 C1008.2862983969213 399.15021821580814, 979.7073667878964 400.91006040096465, 947.6510452678258 400.7042390036165 M950.5262230854994 403.20105800320704 C953.032056231499 366.4303631100716, 948.8999422261462 324.96689655463825, 949.5352676383549 288.7740388961829 M947.6741318864276 283.2068926460987 C968.2614355289068 285.18933162224465, 986.7828528774379 288.20654554857344, 1012.3647208586352 284.94698364989495" stroke="rgb(153, 204, 255)" stroke-width="4" fill="none"/></g><g><path d="M1018.2015657334188 284.41065129033984 L1006.1047317101071 291.4896168279884 L1012.8064165875386 288.9212837274064 L1007.5240146347348 282.46139115072214 L1014.06725277498 286.8660712725389" stroke="none" stroke-width="0" fill="rgb(153, 204, 255)"/><path d="M1013.6096576545356 286.8985271742047 M1016.4044301964466 286.8723822629327 C1014.3649257154647 288.29287405167213, 1010.9571928368782 288.7734740108675, 1005.7517768579073 292.48463428586524 M1016.5395744475749 286.72360997589936 C1014.1436433215101 287.7375670418257, 1011.8134005797763 287.9433910215693, 1007.1674582631731 290.89874902209743 M1005.7126559162385 291.2329569983501 C1007.4731628107224 289.9839393209326, 1011.4678729570201 287.28901508596886, 1010.606712663256 285.45147009774917 M1006.1513847262923 290.79171176607383 C1007.6412349911599 289.87239540342364, 1008.7743911778039 288.3739197068455, 1011.0653443993484 285.9749608725414 M1010.6559232314195 285.63903548799595 C1009.4526586514343 285.56669370220567, 1009.9155672397764 283.99296181804505, 1005.8983588152341 281.73328086105823 M1011.5577868165605 285.8119101595545 C1009.5470428922595 284.35443918388853, 1008.7338352036207 282.8496858142854, 1006.0050604982376 281.34985536723997 M1006.99004235384 279.53763759495513 C1009.3470577351992 282.52499723115113, 1013.9271147989117 283.3808967013767, 1017.4529576165294 284.77148552931067 M1006.7122176525686 281.93245987135225 C1008.0287914766501 282.51548787560233, 1010.6257026125713 283.9538246915207, 1016.0726467198192 286.60826867884464" stroke="rgb(153, 204, 255)" stroke-width="4" fill="none"/></g><g><path d="M1324.9313818732287 266.7478040029343 M1327.3682335851547 268.0046760805943 C1363.8601075303252 265.1877689333433, 1398.089616509316 265.6027163790053, 1421.4998424142045 265.6484077768816 M1419.130874360734 268.9244854282503 C1417.2518314206907 291.4698499299793, 1415.8442063428386 317.5590362049499, 1416.3662760739649 328.3176858122565 M1418.0906773731413 329.8596921716739 C1295.7946914625409 327.3103017862737, 1174.5165099636868 328.1325191694965, 959.7159183938976 329.7163527973964 M960.9771387049911 331.8925198910908 C958.3337685889669 346.16396897615726, 961.9156770616814 364.5455410774884, 956.5082351402474 385.9041759576117 M959.9679822876741 383.87322899459565 C970.153286535233 381.6999350659017, 980.5558443495138 382.78518426739026, 1013.8567229630494 381.89734594001226" stroke="rgb(51, 102, 255)" stroke-width="4" fill="none"/></g><g><path d="M1014.5310205048631 383.9651621044463 L1004.7420166587988 388.3130536826692 L1010.2882953766676 382.41647687092257 L1008.3553232471409 376.7933154055976 L1017.5834104071043 384.0375547868798" stroke="none" stroke-width="0" fill="rgb(51, 102, 255)"/><path d="M1013.8494867327923 385.78509779434677 M1016.396967990338 383.7858316322884 C1013.5895375989104 384.876250592414, 1012.4887813673911 385.92807127501004, 1004.8592834211262 387.4821575805503 M1016.5956583747632 383.65644087316497 C1011.8627225625752 385.35750036983006, 1008.8448386127319 388.2847167359271, 1006.7010678613351 388.5529293815086 M1005.6117556476466 388.1688887707532 C1008.6550299367957 387.5294749342768, 1010.0919851048014 384.87110460048626, 1012.3287970709089 383.8467860005725 M1006.3466037315301 388.73988954688355 C1008.6011315823315 386.97890027932, 1010.5325148842444 384.4819954541821, 1011.6312290810205 383.31670239545684 M1010.5302527713425 383.1668407083651 C1010.8847922435378 381.71243334642793, 1009.0377282207494 379.96153693070755, 1006.6218099862016 378.9442631141412 M1011.5661468845211 383.5163579132281 C1009.6722785445774 381.74351006640984, 1007.60354514715 380.61248396427214, 1006.2059404770231 379.0795532481603 M1004.9285683596302 377.10002363230933 C1010.6051458055363 380.69038950046587, 1013.5797911583086 380.90413519712786, 1015.6502021665382 382.1071973808743 M1006.0247799838793 378.23348987728895 C1008.7793782467487 380.8458970964886, 1012.4667644620524 381.14079852307356, 1016.5124432489167 384.3856282453557" stroke="rgb(51, 102, 255)" stroke-width="4" fill="none"/></g><g><path d="M935.4958954539994 96.57193354825834 M936.6122520384366 98.62431877349584 C938.1855806951618 245.34084191729087, 937.4047781728945 394.72598343328895, 938.8638456288924 686.5841494658351 M939.9066697283117 683.9868690303547 C960.1169550497563 684.6768709613925, 985.7362853438268 686.367317458537, 1014.4721055792724 689.0331467152457" stroke="rgb(128, 0, 0)" stroke-width="4" fill="none"/></g><g><path d="M1024.1034658462381 687.8732289999557 L1012.1427272416064 688.9714395942576 L1013.6013287721117 684.8304408337118 L1009.6722374702437 680.3429515602573 L1022.8846755374474 689.106037319922" stroke="none" stroke-width="0" fill="rgb(128, 0, 0)"/><path d="M1023.9444790103117 686.2654463561978 M1020.008695304188 686.1854699211652 C1019.0370647309817 688.264608569325, 1013.9479675839558 690.7537767475715, 1011.1781980031611 689.9157819679149 M1010.5570742572479 691.4729486609622 C1012.6025327456027 689.9409801892132, 1014.0765859451768 688.9774650939778, 1016.5369867772545 686.8164047110774 M1015.9949300602223 686.9001411577323 C1015.00545457677 683.9392650278573, 1014.1803808408396 684.1845462931742, 1012.309765281455 680.5982064343945 M1011.6982522954496 681.8858697309195 C1016.863403164396 682.1927454544432, 1017.8631556108943 684.4848730326662, 1022.5362712724431 686.6972265879946" stroke="rgb(128, 0, 0)" stroke-width="4" fill="none"/></g><g><path d="M1036.6313221376201 544.2711741751023 M1034.026855155063 545.253828179487 C1015.0693629334353 545.2830154665327, 990.3272595209858 544.6510767602973, 950.031341113386 547.0815930555767 M951.2822240871697 544.9723066367111 C949.8877772336291 518.9494846919924, 948.1983933888145 486.8079855075597, 947.3552428353605 427.8091015537721 M948.4542145226475 427.8874637725547 C959.5478694095083 425.22781507051144, 976.9341068303946 426.7348177189426, 1013.601406754915 429.0805606232438" stroke="rgb(153, 204, 255)" stroke-width="4" fill="none"/></g><g><path d="M1014.5075655112214 426.9656649051547 L1006.4550624298491 430.1353151978003 L1008.5043829629649 425.6097428571715 L1007.767114000126 421.0244841977404 L1013.5475309725864 428.59796098765014" stroke="none" stroke-width="0" fill="rgb(153, 204, 255)"/><path d="M1015.9344382674581 426.7049266502546 M1015.1339986294375 428.2544248676338 C1013.7571946355745 429.6139362018314, 1007.272233499658 431.9750815392113, 1006.1084242732361 433.3090695158028 M1006.2620165482108 431.53331071381217 C1008.0699886054783 430.3670566787439, 1010.8595736573349 428.0440735648812, 1011.9100130009645 426.66185283357703 M1012.5149084879433 427.1911439852891 C1010.8980882587664 425.67621936612903, 1008.6802472736755 425.227256115394, 1007.3966875507041 422.1758798317449 M1006.6376661830608 422.48622957065135 C1010.0957829711566 423.9815724151428, 1013.3961684757111 424.1863234633543, 1017.2267591108038 426.6999912963385" stroke="rgb(153, 204, 255)" stroke-width="4" fill="none"/></g><g><path d="M1325.2676640758684 403.31386037674514 M1327.0744362467085 402.18797161919525 C1366.5224380859129 404.49571917993285, 1401.575245174732 406.49548460684656, 1419.541437534026 401.3696594574457 M1421.9432708756012 401.9078654176288 C1419.4623321579263 422.94818094618876, 1417.0265698702644 440.7940333650049, 1421.9841560209998 466.9455484472736 M1419.241729613891 467.4226585550889 C1241.9507314424127 468.44381357970366, 1065.273902459659 469.07895088421805, 964.6329510482614 467.2619284304651 M964.4382669384464 468.8120855785679 C965.5708703083193 484.5906519303483, 962.1412876261172 503.4896981607417, 965.9213179367373 529.735210900792 M962.0729562093513 526.720393524678 C975.855652005051 531.0770103314802, 984.4203306704493 527.6271964348175, 1013.44086081041 530.354104205204" stroke="rgb(51, 102, 255)" stroke-width="4" fill="none"/></g><g><path d="M1015.7448970600188 526.6170506546556 L1009.4515371116363 531.7572541491721 L1011.804076458624 530.0990186628273 L1005.306103286302 521.4922018915131 L1013.7640413114908 528.328328956686" stroke="none" stroke-width="0" fill="rgb(51, 102, 255)"/><path d="M1017.1454704975711 525.6777066552244 M1017.0004838051474 528.1379312198851 C1013.5969701859698 528.653402596977, 1011.9622914037382 532.4269727542387, 1005.0205294116698 535.1806161147301 M1006.2838450193591 532.7716446093417 C1007.2550951484037 533.1874566642917, 1007.8281208271757 531.3792115737014, 1011.5224216090979 528.879219389308 M1012.2351668413257 528.093145291529 C1008.8366249037805 526.0066442268801, 1007.3298866942949 524.9042226870383, 1005.7089162661255 524.2491592763951 M1005.5514799590939 524.2355900642408 C1010.3033783189795 524.9673609155855, 1013.4354739580739 529.1647285585836, 1015.6767821339184 530.0187978173471" stroke="rgb(51, 102, 255)" stroke-width="4" fill="none"/></g><g><path d="M1041.9316366360902 673.9316295520296 M1038.969038077185 676.6612400082528 C1014.9287698017242 673.9938173892191, 981.9684264632098 671.2711778424543, 951.908597386082 672.8688370827464 M948.517845065546 673.1163366835251 C949.6574606936927 643.479142473439, 952.2992240886198 607.7654411190153, 948.9555408817753 567.1113274763119 M948.0336676997347 567.2107807838278 C968.4291853335064 565.0886481729235, 993.0400507358871 570.3268744861232, 1013.2016493546325 571.4197505296745" stroke="rgb(153, 204, 255)" stroke-width="4" fill="none"/></g><g><path d="M1017.47178257844 569.4611771158801 L1003.7174389976017 571.1937507352208 L1010.7355241528877 570.3640065849585 L1005.6835889978119 562.6370815673275 L1016.1220595242334 567.630936973012" stroke="none" stroke-width="0" fill="rgb(153, 204, 255)"/><path d="M1018.0091790295701 571.1748853260102 M1016.3871386727737 569.9313593095768 C1013.8362165680373 569.4369213426684, 1011.2133403747011 572.0116607529212, 1005.8422024990615 574.3141885881613 M1006.4662176352518 574.4735169679122 C1008.3225374603686 572.2761942162459, 1009.334967008551 570.2026849634169, 1012.152461079904 569.4065917713393 M1011.9487692187649 568.0272272026023 C1009.2218202831517 567.128609909424, 1007.1310284520193 565.0926086329716, 1007.3195637193373 563.1676553268906 M1007.5924022647331 564.1899211095251 C1007.8762000538885 566.3463248191799, 1012.0625060616638 566.5368488946489, 1017.0172844832418 569.581380216302" stroke="rgb(153, 204, 255)" stroke-width="4" fill="none"/></g><g><path d="M1328.1360870623316 548.2346037340922 M1328.2535431482831 548.618148751101 C1354.766035299639 545.4779338172115, 1382.0863398537458 549.1297406466318, 1418.9890484165462 547.1894098176747 M1418.2232741657353 545.6050922799005 C1420.6620409312059 561.2030724013134, 1422.871396488869 581.4534450371334, 1423.6397399515274 608.8983650059474 M1419.8394754492533 609.9838230019843 C1261.3211836910352 608.6029515234502, 1104.8177647549583 607.1523435566978, 969.4665880228995 608.9438853421908 M971.507366154512 607.3652486831564 C968.9954669191656 624.7111972943494, 969.922302382833 640.8109287080396, 968.214632019349 657.1425270687263 M969.5394284091593 655.624337973068 C984.8525822706147 659.0284575649316, 1000.6962246815481 657.916693257927, 1014.1373651346593 655.7538779193152" stroke="rgb(51, 102, 255)" stroke-width="4" fill="none"/></g><g><path d="M1019.3569099750258 654.9420114456768 L1013.0524965497001 664.0039605325817 L1014.1538263301759 653.2721319965057 L1013.2146929255977 651.2893177783875 L1022.1923057158061 655.4595706456536" stroke="none" stroke-width="0" fill="rgb(51, 102, 255)"/><path d="M1021.7686946196438 655.924956971944 M1021.1432044835839 657.5951617151997 C1017.363155070088 658.1816956387597, 1014.2247401359475 660.5572432761802, 1010.6882521106443 662.2188415490757 M1011.1942640435838 661.2922396965355 C1012.3824374185914 659.992054686294, 1015.8222872521636 657.3178796727308, 1017.2208892633305 655.2913773845439 M1017.4704884701343 655.3367756843704 C1015.8015278486622 654.600138705316, 1013.581782407033 652.8414604425267, 1010.9611936430998 650.8294883645704 M1012.871324649733 650.9728841005293 C1013.2280951933781 650.8714195212573, 1015.4772828092139 653.2660165233605, 1020.910948044551 656.1137870922779" stroke="rgb(51, 102, 255)" stroke-width="4" fill="none"/></g><g><path d="M199.5180414641077 232.2516619774718 L520.4221686869034 231.57411435140594 L520.3832118884037 303.8318537503986 L197.68615650128012 305.397267035083" stroke="none" stroke-width="0" fill="rgb(192, 192, 192)"/><path d="M199.0678545152106 232.00648512635888 C312.28434954547714 230.04756615420303, 426.11129803996454 231.71368695518493, 521.4789494330774 233.10550295326058 M518.3126928467573 232.85127543651956 C518.3616014654114 258.5885121640782, 516.7335007437704 275.7482248375775, 519.060488368954 305.423637132113 M520.571628936702 304.1878476240363 C412.1300391744449 304.1850534530125, 304.6565023151176 306.95146487541206, 198.47113087879268 302.61077154459326 M200.4095054846898 302.1156936260899 C199.00185284534587 276.20328184678726, 197.36470744883465 252.12888984540055, 196.7170464554743 234.87717454291098" stroke="rgb(0, 0, 0)" stroke-width="1" fill="none"/></g><g class="text-container" transform="matrix(1, 0, 0, 1, 358.95, 268.5)"><text font-family="'Arial'" font-size="12px" font-style="normal" font-weight="normal" text-decoration="none" text-anchor="middle" fill="rgb(0,0,0)" fill-opacity="1" dy="0.9166666666666666em" transform="" style="font-style: normal;font-weight: 400;font-size: 12px;font-family: Comic Sans MS, cursive;" stroke="none" stroke-width="1px"/></g><g><path d="M291.4001525092559 247.72655144302377 L422.09388641945344 247.7599008105472 L424.21328508782534 290.116331560772 L295.3765771646523 286.47736827911996" stroke="none" stroke-width="0" fill="rgb(51, 153, 102)"/><path d="M294.01822169476 249.2230657254109 C329.10551586148944 250.70455623809642, 368.2920055233679 248.453511171052, 426.51616414043326 249.17799830280325 M426.6691905037342 251.4285491576663 C426.0419505606298 265.92847279595134, 420.6147600020085 280.9798628478112, 425.5642094611713 288.3716162597666 M422.5356415807164 290.41759550511 C400.3228873598176 286.84678034599244, 371.9655891905338 288.1671778698996, 294.3033804841755 289.44054271898835 M295.34273980177926 288.754145312581 C296.8783790349247 279.641434176651, 294.7532490727323 270.4405567844449, 294.6361814262569 247.01359392625076" stroke="rgb(0, 0, 0)" stroke-width="1" fill="none"/></g><g class="text-container" transform="matrix(1, 0, 0, 1, 358.606, 258.699)"><text font-family="'Arial'" font-size="16px" font-style="normal" font-weight="bold" text-decoration="none" text-anchor="middle" fill="rgb(255,255,255)" fill-opacity="1" dy="0.875em" transform="" style="font-style: normal;font-weight: 700;font-size: 16px;font-family: Comic Sans MS, cursive;" stroke="none" stroke-width="1px">Value</text></g><g><path d="M444.10127717861843 246.12568801089404 L502.4517672057334 249.9617500016609 L504.96745667775923 286.2605729794113 L445.4202587897225 290.7524775635983" stroke="none" stroke-width="0" fill="rgb(51, 102, 255)"/><path d="M444.3843078973696 246.48948735336623 C459.99886094689157 251.01947537435856, 476.99646682917745 249.55772485156191, 505.6236812914908 250.95433428657321 M444.0832455787104 247.55009937460946 C455.75006654303644 248.2847919219799, 472.2492494922675 249.08547353370375, 504.4666006800215 247.46471281620217 M507.5746385064245 249.18498651735058 C507.216616233408 263.29285555702853, 503.31894514563703 274.028822806761, 507.272242390624 285.5098736522583 M506.23778612315294 249.49604432678234 C504.2359624496233 261.6855822017099, 503.9515434960432 276.315986366189, 504.25606634880126 288.06829833214465 M507.782859351408 289.5893969811596 C486.4100297104396 287.25544513112754, 466.7241511881829 285.6455716144915, 444.9756885373261 286.432362763094 M504.45923101438234 288.7259210869541 C483.0773452473209 289.0516819702097, 462.82921293242174 287.92028573397596, 443.4685216031838 287.9824507474461 M443.90905545727816 287.2641617532776 C444.3088138160716 273.46358665859907, 442.341814294388 260.82419092079243, 445.87888435133056 245.52235201584358 M441.5119210007836 289.8360492043924 C443.1016546556261 276.799236603845, 442.2012467278348 263.22488569657656, 441.967495273692 247.22549380829" stroke="rgb(0, 0, 0)" stroke-width="1" fill="none"/></g><g class="text-container" transform="matrix(1, 0, 0, 1, 474.11, 258.699)"><text font-family="'Arial'" font-size="16px" font-style="normal" font-weight="bold" text-decoration="none" text-anchor="middle" fill="rgb(255,255,255)" fill-opacity="1" dy="0.875em" transform="" style="font-style: normal;font-weight: 700;font-size: 16px;font-family: Comic Sans MS, cursive;" stroke="none" stroke-width="1px">Next</text></g><g><path d="M29.454119234585825 28.933529943230912 L236.01952602197846 32.057017940030505 L237.2994984739295 97.93683632793848 L27.319246986576097 97.83841917177509" stroke="none" stroke-width="0" fill="rgb(128, 0, 0)"/><path d="M32.47943707584328 29.72008596564898 C74.7129153170543 26.995980655469975, 114.27335342274256 26.97437658011407, 238.69204695543618 29.682851465927296 M239.49174090672722 30.46207829973953 C235.58621290295886 52.69026757937386, 237.30797011325512 72.52429132327627, 236.27131029894133 97.86893526204705 M237.11720751271758 101.0274549927114 C159.85147333231686 97.85574392597402, 83.39684129376086 96.22728411910872, 27.835360786508318 101.49858066748362 M27.098802925316285 99.13510631397118 C27.574848187394892 72.48504143813412, 30.688388355740454 51.32164641149562, 27.51312709493794 31.80930284772086" stroke="rgb(0, 0, 0)" stroke-width="1" fill="none"/></g><g class="text-container" transform="matrix(1, 0, 0, 1, 133.766, 54.6992)"><text font-family="'Arial'" font-size="16px" font-style="normal" font-weight="bold" text-decoration="none" text-anchor="middle" fill="rgb(255,255,255)" fill-opacity="1" dy="0.875em" transform="" style="font-style: normal;font-weight: 700;font-size: 16px;font-family: Comic Sans MS, cursive;" stroke="none" stroke-width="1px">SimpleLinkedList</text></g><g><path d="M200.48340746093058 368.1480038306968 L520.8620009973181 365.69440828505145 L518.7519841664787 439.3869626263625 L196.6381668158627 437.129975989637" stroke="none" stroke-width="0" fill="rgb(192, 192, 192)"/><path d="M197.7662929637084 366.7469234899611 C267.18620010725044 370.2387875092008, 338.8314283217388 368.126451979833, 520.0881971984585 366.63963075927995 M519.9626004794474 369.33531057850473 C517.2575355419336 384.5953571704941, 519.1430281189175 405.5582864950513, 522.326921833004 435.02366675422616 M518.3736754134745 438.2036555444903 C436.52400803028667 438.2493067402847, 354.0001122954193 439.1265197551584, 199.98804199840365 438.8409638110802 M198.36539611645992 435.6766144015057 C195.4418468452532 415.02870511744703, 196.79891088966724 391.57227871370833, 198.30218024802016 370.3635064324451" stroke="rgb(0, 0, 0)" stroke-width="1" fill="none"/></g><g class="text-container" transform="matrix(1, 0, 0, 1, 358.95, 403)"><text font-family="'Arial'" font-size="12px" font-style="normal" font-weight="normal" text-decoration="none" text-anchor="middle" fill="rgb(0,0,0)" fill-opacity="1" dy="0.9166666666666666em" transform="" style="font-style: normal;font-weight: 400;font-size: 12px;font-family: Comic Sans MS, cursive;" stroke="none" stroke-width="1px"/></g><g><path d="M292.0853793500376 384.10057178708064 L424.0784056420825 385.86634587812506 L421.4258465905954 420.59642545966614 L291.1366669545949 423.8679652228023" stroke="none" stroke-width="0" fill="rgb(51, 153, 102)"/><path d="M295.8737168781189 385.8574407694718 C322.63700030267177 383.2540612523701, 347.85338221429834 382.8056828550658, 426.88573564011693 382.7935988863842 M425.6099828748512 381.7445552511037 C423.5341849390575 391.7551454053214, 427.2537052715968 403.56467913903646, 423.39321326151565 425.51488126857794 M423.38483551942693 425.4822571278811 C383.54946845881136 424.40516556777055, 339.40210851636755 422.3877433224818, 296.74259178431015 421.92993064823565 M291.30524853117646 424.47294458647366 C294.3095529991024 411.6762660737404, 293.9929937104058 406.5287193041954, 292.4843779298641 382.82044696808566" stroke="rgb(0, 0, 0)" stroke-width="1" fill="none"/></g><g class="text-container" transform="matrix(1, 0, 0, 1, 358.606, 393.199)"><text font-family="'Arial'" font-size="16px" font-style="normal" font-weight="bold" text-decoration="none" text-anchor="middle" fill="rgb(255,255,255)" fill-opacity="1" dy="0.875em" transform="" style="font-style: normal;font-weight: 700;font-size: 16px;font-family: Comic Sans MS, cursive;" stroke="none" stroke-width="1px">Value</text></g><g><path d="M441.82030602207635 381.5186012722102 L506.9335446891757 380.2365574107209 L504.7793411704418 421.5238223167765 L442.138789783027 420.82173725358274" stroke="none" stroke-width="0" fill="rgb(51, 102, 255)"/><path d="M444.48575608827855 383.99345904663085 C461.05325319202495 381.76292690733055, 477.2122424193984 385.1357053896923, 503.13913024406787 384.12786847203745 M502.9379059919193 382.0923353292436 C502.23851546866274 396.4158956252879, 504.1953977777977 408.65622902348514, 506.4466366541005 421.12555712813605 M503.47909314339455 421.02411105136565 C485.88424503248484 421.57150277618854, 470.42137541212963 423.788577017537, 440.53747548556396 421.02152736759166 M441.9072383101307 422.78429135445265 C441.9685992211217 409.93317983571893, 440.3352755492858 399.30774914972693, 443.9866042624119 384.1066713030558" stroke="rgb(0, 0, 0)" stroke-width="1" fill="none"/></g><g class="text-container" transform="matrix(1, 0, 0, 1, 474.11, 393.199)"><text font-family="'Arial'" font-size="16px" font-style="normal" font-weight="bold" text-decoration="none" text-anchor="middle" fill="rgb(255,255,255)" fill-opacity="1" dy="0.875em" transform="" style="font-style: normal;font-weight: 700;font-size: 16px;font-family: Comic Sans MS, cursive;" stroke="none" stroke-width="1px">Next</text></g><g><path d="M199.84570580908905 510.13232983613864 L519.07259043693 512.2543050494806 L522.9270130867346 580.3793316926477 L196.6319732610322 578.9693235075176" stroke="none" stroke-width="0" fill="rgb(192, 192, 192)"/><path d="M199.77734255018353 511.1912919319747 C262.18738189807823 508.2240601970855, 326.8020089530494 509.88598647902836, 521.1319733551621 513.0338210872357 M522.0810377031598 513.8462620604439 C517.8565892363232 537.1663585147937, 520.7788586927343 559.248561889034, 518.0771240761221 580.7356026429466 M519.0811701061962 580.6360196730969 C431.53132145569873 577.8307479918651, 339.2822705954645 578.8193400593451, 199.02995996947348 581.1363374121398 M197.54900004419383 581.9441013605119 C198.91757520164575 559.1270835914893, 196.63458676703647 532.9417894790411, 195.0753786795995 509.68535157444984" stroke="rgb(0, 0, 0)" stroke-width="1" fill="none"/></g><g class="text-container" transform="matrix(1, 0, 0, 1, 358.95, 546)"><text font-family="'Arial'" font-size="12px" font-style="normal" font-weight="normal" text-decoration="none" text-anchor="middle" fill="rgb(0,0,0)" fill-opacity="1" dy="0.9166666666666666em" transform="" style="font-style: normal;font-weight: 400;font-size: 12px;font-family: Comic Sans MS, cursive;" stroke="none" stroke-width="1px"/></g><g><path d="M294.1461555128396 527.7237039581032 L425.5653832386291 527.7205749415863 L426.1656744819086 564.1712122514764 L291.7168691923478 564.6778041778638" stroke="none" stroke-width="0" fill="rgb(51, 153, 102)"/><path d="M291.70859819180305 528.6344111650499 C320.3705094203115 526.6567029392935, 349.4268014587086 524.4723159594615, 424.56884309832276 525.8376705781658 M425.5772610859719 524.5886878087929 C423.6381675664267 536.2987458248999, 422.9706020968356 546.716436707179, 422.657657075741 567.1668663911996 M424.07914458228646 568.9623440372525 C394.25117016142553 569.2007682413507, 358.0531380138449 566.4850738532234, 293.12682617645066 568.1202949439787 M291.1033656384818 566.4055371292806 C294.79888745901303 552.4332205055916, 294.37031222625876 545.6893034671447, 293.95340580724485 523.5732236283199" stroke="rgb(0, 0, 0)" stroke-width="1" fill="none"/></g><g class="text-container" transform="matrix(1, 0, 0, 1, 358.606, 536.199)"><text font-family="'Arial'" font-size="16px" font-style="normal" font-weight="bold" text-decoration="none" text-anchor="middle" fill="rgb(255,255,255)" fill-opacity="1" dy="0.875em" transform="" style="font-style: normal;font-weight: 700;font-size: 16px;font-family: Comic Sans MS, cursive;" stroke="none" stroke-width="1px">Value</text></g><g><path d="M440.93170411430714 526.2363277034386 L507.7476498908981 525.3064990580041 L502.7334552285625 563.5467666661135 L445.64631664888753 567.5808894716799" stroke="none" stroke-width="0" fill="rgb(51, 102, 255)"/><path d="M441.40090169851936 528.9535452754372 C461.5565975979703 524.1404134088737, 477.09018549866937 525.6547589765783, 504.32624469359996 524.572682873734 M506.86778441404164 526.2502084293621 C505.1027360975806 533.4508144773242, 504.4547399330882 543.2327428150829, 505.82038623690516 565.4289353797155 M506.3537452086365 567.9484790430505 C489.205849218868 566.9207433762381, 478.9304948673969 566.9266091205284, 443.5346165078835 563.8343142976485 M440.57889059556453 564.0834711342457 C441.21576337587607 559.3773998502659, 444.99567437914965 549.9231337269398, 445.47538586075956 524.1892466364699" stroke="rgb(0, 0, 0)" stroke-width="1" fill="none"/></g><g class="text-container" transform="matrix(1, 0, 0, 1, 474.11, 536.199)"><text font-family="'Arial'" font-size="16px" font-style="normal" font-weight="bold" text-decoration="none" text-anchor="middle" fill="rgb(255,255,255)" fill-opacity="1" dy="0.875em" transform="" style="font-style: normal;font-weight: 700;font-size: 16px;font-family: Comic Sans MS, cursive;" stroke="none" stroke-width="1px">Next</text></g><g><path d="M203.2921384889106 642.0810108568726 L524.082582124468 637.379918440595 L527.4404430951574 708.1595061143985 L203.232613903863 710.9407855133959" stroke="none" stroke-width="0" fill="rgb(192, 192, 192)"/><path d="M201.41371831796175 640.14453952831 C319.7961009221078 640.453925559836, 436.1184459174408 640.0149816267351, 524.1278644710043 641.6061506889392 M524.361628563384 641.286344362925 C525.458393473332 660.1742326978124, 527.3009484211271 678.3121920747813, 523.2906842932858 707.8322378378692 M526.155843294321 710.2311990167581 C405.3890093854524 711.4514597096988, 286.326872355184 710.0342130789427, 204.26097426884658 709.2066514327988 M200.97351572637777 706.3372738495727 C206.0943468321542 692.2025492387579, 206.25331327945705 672.8923953413351, 203.1238130606986 640.2192014129446" stroke="rgb(0, 0, 0)" stroke-width="1" fill="none"/></g><g class="text-container" transform="matrix(1, 0, 0, 1, 363.95, 674.5)"><text font-family="'Arial'" font-size="12px" font-style="normal" font-weight="normal" text-decoration="none" text-anchor="middle" fill="rgb(0,0,0)" fill-opacity="1" dy="0.9166666666666666em" transform="" style="font-style: normal;font-weight: 400;font-size: 12px;font-family: Comic Sans MS, cursive;" stroke="none" stroke-width="1px"/></g><g><path d="M300.80639742785826 657.0806538355903 L426.9239078817332 655.5672034818632 L429.3574104654841 694.6550841981328 L297.9354706039915 691.9634557747895" stroke="none" stroke-width="0" fill="rgb(51, 153, 102)"/><path d="M299.29886696516377 655.0746166579542 C347.22194161450267 651.8661238951105, 392.52344503897655 653.7393433419279, 428.4916052303554 655.9435042856632 M430.3384479080743 652.1725996796072 C430.35688381798593 663.339149166194, 431.85628194024036 678.8557935131779, 431.32283474580476 691.6601037640821 M430.60417947182185 695.6275314127289 C388.9524159963007 692.7922515331555, 345.25109396553717 693.3880251284018, 299.6522618057807 696.1230162849674 M300.8821708944789 697.3297242373255 C296.9961506115621 680.3576809356036, 296.49108261308675 666.0578479642503, 297.7507039975155 651.7315090362163" stroke="rgb(0, 0, 0)" stroke-width="1" fill="none"/></g><g class="text-container" transform="matrix(1, 0, 0, 1, 363.606, 664.699)"><text font-family="'Arial'" font-size="16px" font-style="normal" font-weight="bold" text-decoration="none" text-anchor="middle" fill="rgb(255,255,255)" fill-opacity="1" dy="0.875em" transform="" style="font-style: normal;font-weight: 700;font-size: 16px;font-family: Comic Sans MS, cursive;" stroke="none" stroke-width="1px">Value</text></g><g><path d="M450.3898831331736 651.5235311577306 L512.7173410586286 657.3558067744113 L510.05444574382125 693.3186358187749 L449.6669745267123 695.2896598988" stroke="none" stroke-width="0" fill="rgb(51, 102, 255)"/><path d="M447.9553662779428 654.0222048782949 C468.45366801108304 652.9872348133237, 484.51709992052605 655.6881805890262, 508.85201603552093 655.0956105710482 M449.11192631406846 655.623267988995 C473.38800147790005 653.7707971588347, 495.4082121391026 655.7117829011924, 509.9389638595361 653.2413150979527 M509.2069998562167 652.0741983063654 C509.5754508586972 668.0885878888683, 506.8735500983697 676.4949271764716, 507.25966380250844 692.1623936835215 M510.7858260014085 654.4074119384599 C509.4635106686627 664.8630349230483, 508.91155178675734 673.6782799694935, 511.1081407015261 693.5245855656701 M508.17260017002 693.8036099715628 C485.87957989295984 692.9395395164927, 466.2056483193417 694.0199886111433, 450.31711258367983 694.0877493820778 M509.29936908174295 695.9618541934585 C496.19313625845615 694.3451520489305, 486.2594312803232 695.51412668732, 448.8923876742326 694.3512936422799 M446.0777747865406 696.3410683871313 C446.4902004283485 687.3159957607863, 446.810789788974 677.739101437356, 449.6625263137412 652.8681465224249 M449.1451031830545 694.8555554638217 C447.8505633300232 684.7245070648888, 449.29274943465725 675.0459811429954, 448.76735176594565 655.9268818825444" stroke="rgb(0, 0, 0)" stroke-width="1" fill="none"/></g><g class="text-container" transform="matrix(1, 0, 0, 1, 479.11, 664.699)"><text font-family="'Arial'" font-size="16px" font-style="normal" font-weight="bold" text-decoration="none" text-anchor="middle" fill="rgb(255,255,255)" fill-opacity="1" dy="0.875em" transform="" style="font-style: normal;font-weight: 700;font-size: 16px;font-family: Comic Sans MS, cursive;" stroke="none" stroke-width="1px">Next</text></g><g><path d="M1020.5651027871872 234.4738857095313 L1341.691626333244 234.26943143161662 L1341.8103834594274 302.34775743468253 L1018.6539214381681 305.87122312323976" stroke="none" stroke-width="0" fill="rgb(192, 192, 192)"/><path d="M1021.288634387737 232.32504208515255 C1093.152591444292 229.61730561139743, 1165.0325467500556 230.75981937989596, 1340.5280045145596 232.54575851484 M1342.3408080071065 234.79126908970707 C1343.84648787614 249.58459773513357, 1341.427107912318 267.28143104665, 1343.6017411110474 302.9616072425584 M1342.4307752141935 303.6609522242535 C1272.4711627921665 301.52466199705725, 1204.5665276051939 301.3723659813907, 1019.4586689358587 303.04143643979694 M1018.8538370074416 304.71240996794467 C1021.0236268049842 277.90803534545586, 1016.87187072034 251.23531203096098, 1020.7165090657046 235.31554570411498" stroke="rgb(0, 0, 0)" stroke-width="1" fill="none"/></g><g class="text-container" transform="matrix(1, 0, 0, 1, 1181.5, 268.5)"><text font-family="'Arial'" font-size="12px" font-style="normal" font-weight="normal" text-decoration="none" text-anchor="middle" fill="rgb(0,0,0)" fill-opacity="1" dy="0.9166666666666666em" transform="" style="font-style: normal;font-weight: 400;font-size: 12px;font-family: Comic Sans MS, cursive;" stroke="none" stroke-width="1px"/></g><g><path d="M1116.0648410231886 245.77171367277947 L1243.9157717668988 250.03082361213086 L1247.2079139903585 288.8455103266367 L1116.0912294573634 287.29669370573527" stroke="none" stroke-width="0" fill="rgb(51, 153, 102)"/><path d="M1119.4413234313145 249.37363210909925 C1145.3760499480125 244.5207525275263, 1178.1820011355371 248.34013064384973, 1246.8638434315676 250.6495315628388 M1248.5632976027337 251.36801489180223 C1243.4083526732684 258.6582233855859, 1245.1705389654257 267.80087786271463, 1244.9755960611105 290.07891667458 M1245.999247663877 286.34970215395447 C1215.0616108242016 285.0520321662358, 1186.7790370140244 289.8409839475359, 1118.4612309893246 290.45318359589 M1113.5121465263626 286.9592813924733 C1114.7754959568028 273.84945099123206, 1116.373756560062 264.5089896955842, 1114.1324357064898 249.10564792057855" stroke="rgb(0, 0, 0)" stroke-width="1" fill="none"/></g><g class="text-container" transform="matrix(1, 0, 0, 1, 1181.16, 258.699)"><text font-family="'Arial'" font-size="16px" font-style="normal" font-weight="bold" text-decoration="none" text-anchor="middle" fill="rgb(255,255,255)" fill-opacity="1" dy="0.875em" transform="" style="font-style: normal;font-weight: 700;font-size: 16px;font-family: Comic Sans MS, cursive;" stroke="none" stroke-width="1px">Value</text></g><g><path d="M1265.1194738908662 249.35528234759917 L1326.097664676595 246.87006060543285 L1326.5211729048883 290.19304301046367 L1263.8444500426235 287.1123028121304" stroke="none" stroke-width="0" fill="rgb(51, 102, 255)"/><path d="M1263.2090990642166 246.7138122353789 C1281.783495270794 249.71628130193943, 1302.355317529696 247.31418077302513, 1329.7575896808412 250.1636692645273 M1325.7658187471447 249.21692011268198 C1329.4873080784373 255.5477552122088, 1327.135890701108 270.0259927687196, 1329.6929357858148 287.4570555640745 M1326.1021388865654 290.94347050094035 C1303.515241816469 289.90598813730924, 1283.3648544297346 291.0650723250498, 1268.1361456217567 286.11088116193434 M1264.1881650115026 289.11769663036034 C1266.0773921534064 274.4311478899878, 1268.0642513897872 257.9170641736543, 1266.644931861977 247.70851698308977" stroke="rgb(0, 0, 0)" stroke-width="1" fill="none"/></g><g class="text-container" transform="matrix(1, 0, 0, 1, 1296.66, 258.699)"><text font-family="'Arial'" font-size="16px" font-style="normal" font-weight="bold" text-decoration="none" text-anchor="middle" fill="rgb(255,255,255)" fill-opacity="1" dy="0.875em" transform="" style="font-style: normal;font-weight: 700;font-size: 16px;font-family: Comic Sans MS, cursive;" stroke="none" stroke-width="1px">Next</text></g><g><path d="M852.9428784128478 28.46324901883129 L1062.1431190394721 29.37204674528418 L1056.918220974282 101.6676374915789 L853.1938144754452 97.31580310959437" stroke="none" stroke-width="0" fill="rgb(128, 0, 0)"/><path d="M853.5709200261081 28.609109681929056 C926.0016657520707 30.706472829261347, 1006.8548216508141 32.98408911187334, 1059.8811766360325 27.903209878764493 M1061.2460989521956 29.007170306015755 C1061.211662513698 48.39175162087785, 1062.122054938126 62.45995705754356, 1056.5566377379587 96.01160103092418 M1057.5093212985125 100.5560220688657 C1001.4876115123094 96.30874019585482, 947.5367348764779 96.69297580669372, 850.855209205848 98.62723172903908 M855.375406077948 100.64035064548165 C855.2801007238195 78.62745933462931, 854.0671679204978 58.08652895984941, 852.8726068589586 30.689469008753974" stroke="rgb(0, 0, 0)" stroke-width="1" fill="none"/></g><g class="text-container" transform="matrix(1, 0, 0, 1, 956.437, 54.6992)"><text font-family="'Arial'" font-size="16px" font-style="normal" font-weight="bold" text-decoration="none" text-anchor="middle" fill="rgb(255,255,255)" fill-opacity="1" dy="0.875em" transform="" style="font-style: normal;font-weight: 700;font-size: 16px;font-family: Comic Sans MS, cursive;" stroke="none" stroke-width="1px">DoubleLinkedList</text></g><g><path d="M1023.1128922818422 368.9001367925844 L1342.9814952566126 366.93866381765787 L1342.9528637280378 435.4361040600321 L1022.7137874369771 435.19332116954104" stroke="none" stroke-width="0" fill="rgb(192, 192, 192)"/><path d="M1019.0114868873687 367.0357848836368 C1101.3826464198698 368.4511430934681, 1184.2772004562285 369.4472594436223, 1341.0017465955364 369.79359298564316 M1343.6035848215938 369.2577462380432 C1341.7773047420421 389.98080870216256, 1344.063806281061 411.04559769842336, 1339.6968623468888 438.1792420233405 M1343.5624507866248 437.5974148381263 C1271.3588307244333 441.193037155978, 1203.7624721630307 440.50273907153684, 1018.423616745993 438.05341017413554 M1022.6497392228969 436.9869898472829 C1021.9539988964169 413.16534365677353, 1020.1106030247124 393.09375530147327, 1019.1872174588303 365.86128474311545" stroke="rgb(0, 0, 0)" stroke-width="1" fill="none"/></g><g class="text-container" transform="matrix(1, 0, 0, 1, 1181.5, 403)"><text font-family="'Arial'" font-size="12px" font-style="normal" font-weight="normal" text-decoration="none" text-anchor="middle" fill="rgb(0,0,0)" fill-opacity="1" dy="0.9166666666666666em" transform="" style="font-style: normal;font-weight: 400;font-size: 12px;font-family: Comic Sans MS, cursive;" stroke="none" stroke-width="1px"/></g><g><path d="M1114.7081801177205 383.67048416020174 L1246.6124569505803 380.86892276564 L1246.1991381939554 422.34361727953655 L1117.779878394324 425.55863057854134" stroke="none" stroke-width="0" fill="rgb(51, 153, 102)"/><path d="M1113.9954032540732 381.3770644735192 C1142.379871334674 380.7410363112191, 1169.6167588902017 384.9561027405325, 1248.3214795854392 381.1655291756579 M1115.2846781683331 382.37314210492895 C1153.4737041346548 385.34507115108005, 1191.081513247257 384.32146670952244, 1247.8802247876754 383.98114498986087 M1245.9102962534698 381.6882489016035 C1244.7861435745397 389.4231991263112, 1246.75326340488 399.512527798189, 1246.8524989051436 424.89395634204635 M1246.2552309619043 384.080050397932 C1246.8920102488275 397.81082226960865, 1247.4985285654413 410.9043088134098, 1245.2669890748284 422.0455046273293 M1249.4010921625775 421.3588567023023 C1202.121024329316 423.2522249965741, 1160.8045269509446 423.7667089675188, 1118.5732171789741 422.857313052283 M1246.4598242163938 423.7491491838211 C1196.5155003758541 422.0000616767677, 1143.6679207915217 423.5033198426091, 1117.1660845120355 423.2686633367493 M1117.5615447382281 424.5351476834395 C1115.9928819168654 415.78260364520645, 1113.992047271064 407.25848684054523, 1118.2113031216395 380.103514361281 M1116.8752136180549 422.77855747523625 C1116.7337186842628 415.67094922203574, 1117.0099942109491 406.65786907490343, 1117.8043041618862 382.495006476129" stroke="rgb(0, 0, 0)" stroke-width="1" fill="none"/></g><g class="text-container" transform="matrix(1, 0, 0, 1, 1181.16, 393.199)"><text font-family="'Arial'" font-size="16px" font-style="normal" font-weight="bold" text-decoration="none" text-anchor="middle" fill="rgb(255,255,255)" fill-opacity="1" dy="0.875em" transform="" style="font-style: normal;font-weight: 700;font-size: 16px;font-family: Comic Sans MS, cursive;" stroke="none" stroke-width="1px">Value</text></g><g><path d="M1266.6504740286755 384.83940560285373 L1329.5047139814178 382.6203280864955 L1326.453012410802 425.0337752270022 L1267.062332311833 420.44530025629774" stroke="none" stroke-width="0" fill="rgb(51, 102, 255)"/><path d="M1267.7474776316278 383.9978098227132 C1287.0053487932876 384.8427074447341, 1312.892959015163 380.00525053712266, 1326.697226998764 381.0112403475549 M1329.9960838731215 382.0396415436433 C1327.0147749946427 397.88361138055853, 1328.3358834442474 411.11720801184026, 1328.4122493435061 423.1586134849955 M1326.7699144526937 423.2047240486087 C1304.2967427258066 420.50990063560624, 1278.3221129260799 423.15091060525236, 1268.1553581641285 422.422664413999 M1262.921300285511 423.29185492215777 C1268.3701971567252 412.3494288093197, 1267.1521608855992 405.13747010777655, 1267.042374335946 384.96039719243703" stroke="rgb(0, 0, 0)" stroke-width="1" fill="none"/></g><g class="text-container" transform="matrix(1, 0, 0, 1, 1296.66, 393.199)"><text font-family="'Arial'" font-size="16px" font-style="normal" font-weight="bold" text-decoration="none" text-anchor="middle" fill="rgb(255,255,255)" fill-opacity="1" dy="0.875em" transform="" style="font-style: normal;font-weight: 700;font-size: 16px;font-family: Comic Sans MS, cursive;" stroke="none" stroke-width="1px">Next</text></g><g><path d="M1022.2404584687368 508.5958319255305 L1344.9738463670149 509.39083127082966 L1340.325540627336 579.4255904822365 L1021.0692544264579 582.901716701597" stroke="none" stroke-width="0" fill="rgb(192, 192, 192)"/><path d="M1019.3637355054731 509.68249945108346 C1141.0981566659711 515.6624559015667, 1260.8458639485243 516.0510399646186, 1340.6517106041833 512.1768618869318 M1344.0416720591943 514.184073405367 C1342.7778292047515 523.2741269146221, 1344.341089297654 541.5888022065311, 1340.1922967574417 578.0393718512382 M1342.4420130813655 578.9718791314738 C1214.430582773016 579.6480488438832, 1090.6639042665427 582.1448376556511, 1019.5997082542815 580.8628541582641 M1018.1634627150589 583.1037263186396 C1022.4643939127537 563.72668786053, 1022.5387064791928 550.5018696745072, 1020.5104073928139 512.2812403248676" stroke="rgb(0, 0, 0)" stroke-width="1" fill="none"/></g><g class="text-container" transform="matrix(1, 0, 0, 1, 1181.5, 546)"><text font-family="'Arial'" font-size="12px" font-style="normal" font-weight="normal" text-decoration="none" text-anchor="middle" fill="rgb(0,0,0)" fill-opacity="1" dy="0.9166666666666666em" transform="" style="font-style: normal;font-weight: 400;font-size: 12px;font-family: Comic Sans MS, cursive;" stroke="none" stroke-width="1px"/></g><g><path d="M1115.113045333946 525.6587967862001 L1246.2568034799829 527.3622642967804 L1247.2907778520973 564.8252840607165 L1114.780460512778 567.9411823596824" stroke="none" stroke-width="0" fill="rgb(51, 153, 102)"/><path d="M1117.4480329595547 526.6214583237748 C1148.9985675561113 522.5138016415167, 1185.1085051788543 522.7048459155288, 1247.4581927777058 528.2049635920312 M1244.6496393089365 523.5630112242235 C1246.796647333213 538.6144779593966, 1243.9047457784197 544.8379450908243, 1246.1595324278496 568.1668576412051 M1246.0622965244834 566.1088917698477 C1221.1505495671415 568.2964662485081, 1190.3887746573362 565.0971976335815, 1117.7570116179222 568.4842694080536 M1115.0747808372878 566.0803253785285 C1114.355398641881 553.1234328834656, 1118.774467191837 539.3752739856865, 1113.790519383082 527.7778590072868" stroke="rgb(0, 0, 0)" stroke-width="1" fill="none"/></g><g class="text-container" transform="matrix(1, 0, 0, 1, 1181.16, 536.199)"><text font-family="'Arial'" font-size="16px" font-style="normal" font-weight="bold" text-decoration="none" text-anchor="middle" fill="rgb(255,255,255)" fill-opacity="1" dy="0.875em" transform="" style="font-style: normal;font-weight: 700;font-size: 16px;font-family: Comic Sans MS, cursive;" stroke="none" stroke-width="1px">Value</text></g><g><path d="M1263.2655206186826 523.5686212680332 L1326.7733994340363 528.2726385178474 L1328.8272888718282 568.4421812306409 L1265.7248093270853 567.3788886775857" stroke="none" stroke-width="0" fill="rgb(51, 102, 255)"/><path d="M1264.2019074510517 527.3964643901666 C1290.3095608634928 527.2370333788379, 1309.750820430515 525.7033974843852, 1329.9472488356819 523.0904191027249 M1325.1286920194425 528.7894042455519 C1328.0466837122656 536.440175657272, 1330.4779700622223 547.7448835256924, 1325.0291339995276 567.576677261274 M1329.4138389037985 563.0641402337316 C1305.7137282930216 562.5296337404662, 1286.9226290615604 562.7334004588662, 1264.5655931848942 568.5071799026548 M1265.6811349409797 566.7072710690136 C1263.326235416923 548.3888671014012, 1268.2224395119222 534.291651165395, 1266.3272959036285 524.345774628772" stroke="rgb(0, 0, 0)" stroke-width="1" fill="none"/></g><g class="text-container" transform="matrix(1, 0, 0, 1, 1296.66, 536.199)"><text font-family="'Arial'" font-size="16px" font-style="normal" font-weight="bold" text-decoration="none" text-anchor="middle" fill="rgb(255,255,255)" fill-opacity="1" dy="0.875em" transform="" style="font-style: normal;font-weight: 700;font-size: 16px;font-family: Comic Sans MS, cursive;" stroke="none" stroke-width="1px">Next</text></g><g><path d="M1027.6998654978108 641.8876177322533 L1348.0125735710549 641.565170359044 L1349.7394114585047 711.1035988439269 L1023.2773153628649 711.5350227393877" stroke="none" stroke-width="0" fill="rgb(192, 192, 192)"/><path d="M1026.5753519885038 638.4866257583592 C1101.1054517836108 641.7049865063653, 1177.0930354591485 644.4910362892862, 1345.9462339630943 641.105350838047 M1024.9666253304977 639.903507578817 C1153.6648409737727 642.3941943578494, 1281.4367738994051 642.4242379897951, 1347.5656801123453 640.432567409027 M1344.9396301899162 640.0313801562005 C1348.0287495707503 662.8823363430089, 1348.0183202388891 688.1798818278475, 1347.6130914456207 706.7266746253279 M1346.3306027779963 641.4331074762335 C1345.789536367389 657.1351826258266, 1347.1549748955083 675.6930427622543, 1348.6737054165644 710.458598927035 M1349.2620774542975 710.5575093494684 C1223.2895766385843 711.2294454019908, 1098.3456953803025 708.8096158904623, 1025.8128226427627 707.4987761922578 M1347.3970420764174 708.4521495182298 C1277.2090314028444 710.9150523850811, 1207.3881028308813 709.1973315568188, 1024.5312177045219 709.0781911767343 M1028.1387841352273 711.1109572992566 C1024.4335407125673 695.7520604158843, 1027.416245650592 679.6966262984183, 1027.6378809546025 642.3531411268763 M1026.6712586267984 707.6570734643207 C1025.614041050314 684.9563298256953, 1026.1103342315978 659.9144592358177, 1025.8254787964986 638.651015165928" stroke="rgb(0, 0, 0)" stroke-width="1" fill="none"/></g><g class="text-container" transform="matrix(1, 0, 0, 1, 1186.5, 674.5)"><text font-family="'Arial'" font-size="12px" font-style="normal" font-weight="normal" text-decoration="none" text-anchor="middle" fill="rgb(0,0,0)" fill-opacity="1" dy="0.9166666666666666em" transform="" style="font-style: normal;font-weight: 400;font-size: 12px;font-family: Comic Sans MS, cursive;" stroke="none" stroke-width="1px"/></g><g><path d="M1120.3458343382483 652.1111151286934 L1252.0757899182447 656.7088465222652 L1253.6805542996287 692.8410844403079 L1121.3400062382582 693.054296794854" stroke="none" stroke-width="0" fill="rgb(51, 153, 102)"/><path d="M1120.3607009605403 657.1604584952697 C1156.9795899489118 657.7078547566543, 1197.6956288704957 658.1227967079321, 1250.7775160450253 655.2279485806782 M1250.460168057941 655.4888317927175 C1253.191969960592 660.5655534013267, 1252.1316879049386 667.9459107793767, 1249.160562550233 692.2353826806068 M1252.783216860242 694.7378514307912 C1216.1435762004326 697.2501444079868, 1180.380275473335 698.9923601650478, 1123.300422722508 696.5396649421934 M1122.416997716826 691.7647727800207 C1122.8315975064766 682.65395231927, 1119.726325493422 670.9690733982621, 1122.9809916321392 652.5123357416819" stroke="rgb(0, 0, 0)" stroke-width="1" fill="none"/></g><g class="text-container" transform="matrix(1, 0, 0, 1, 1186.16, 664.699)"><text font-family="'Arial'" font-size="16px" font-style="normal" font-weight="bold" text-decoration="none" text-anchor="middle" fill="rgb(255,255,255)" fill-opacity="1" dy="0.875em" transform="" style="font-style: normal;font-weight: 700;font-size: 16px;font-family: Comic Sans MS, cursive;" stroke="none" stroke-width="1px">Value</text></g><g><path d="M1272.652226722891 652.6671417183338 L1331.0272694001387 657.2066609514295 L1330.738833135619 693.9520640920124 L1273.208149054381 693.4016324837519" stroke="none" stroke-width="0" fill="rgb(51, 102, 255)"/><path d="M1269.6651628006668 652.5730691087122 C1291.0642468111896 657.5601042535698, 1306.1081499139234 656.1194436944629, 1334.1703203853265 653.8832549533523 M1332.8384069730093 652.0799493110812 C1331.0133293730223 667.352642545401, 1330.245343344576 680.9620272748543, 1333.4102275711377 695.8894942082135 M1329.7355513718935 694.9680865073301 C1308.7476684745027 697.3371336577709, 1291.4223328934795 694.5298492673915, 1268.3514757070143 694.4785581426297 M1269.1653576171468 694.2284471360557 C1270.1249656456614 677.2336876005215, 1267.7193397917122 661.8956713265934, 1271.5495639014177 656.5950701078661" stroke="rgb(0, 0, 0)" stroke-width="1" fill="none"/></g><g class="text-container" transform="matrix(1, 0, 0, 1, 1301.66, 664.699)"><text font-family="'Arial'" font-size="16px" font-style="normal" font-weight="bold" text-decoration="none" text-anchor="middle" fill="rgb(255,255,255)" fill-opacity="1" dy="0.875em" transform="" style="font-style: normal;font-weight: 700;font-size: 16px;font-family: Comic Sans MS, cursive;" stroke="none" stroke-width="1px">Next</text></g><g><path d="M1035.7973973131031 249.76390898577807 L1097.3249645031453 250.63653151975538 L1094.8174582885426 289.3173464177847 L1035.594254101432 290.0031815510522" stroke="none" stroke-width="0" fill="rgb(153, 204, 255)"/><path d="M1036.8541061093888 249.84372833832717 C1061.9869068004664 248.99309058734437, 1087.6864243906973 246.48927630063565, 1097.5119070279115 246.38135975106812 M1034.7347696156526 248.88681560702423 C1057.6844448044214 248.71605226245927, 1082.0059886343704 248.12732230600042, 1098.2452545699116 247.44530547206926 M1096.0850338996124 251.28353491190774 C1099.0120388364394 260.4156420901388, 1099.4993502815717 270.44683551429193, 1094.8630299559252 287.9681139145272 M1096.8349323240632 247.14682730307638 C1098.4826669575996 258.324003459218, 1098.7246465786363 267.6246786861733, 1097.9509783842007 288.84301765854957 M1095.7659063752021 286.283107031015 C1071.6126569910982 286.142423954236, 1048.0831551027488 289.9986172179274, 1037.6222842118123 286.83113978164835 M1096.7850062424734 288.5546429957688 C1076.436711301804 288.72974188150243, 1054.0980286210458 286.85261834185997, 1036.9584952526943 288.3783304420228 M1035.4255502460794 286.4917557859267 C1033.0372242585102 271.4257705101971, 1033.8820934756259 261.85222512568237, 1034.6689656531041 247.23463235492483 M1036.299266292274 287.3909786171954 C1035.4996770003238 276.80283008432474, 1034.7073092526268 261.7697050718432, 1035.945162509038 249.19072528771068" stroke="rgb(0, 0, 0)" stroke-width="1" fill="none"/></g><g class="text-container" transform="matrix(1, 0, 0, 1, 1066.65, 258.699)"><text font-family="'Arial'" font-size="16px" font-style="normal" font-weight="bold" text-decoration="none" text-anchor="middle" fill="rgb(255,255,255)" fill-opacity="1" dy="0.875em" transform="" style="font-style: normal;font-weight: 700;font-size: 16px;font-family: Comic Sans MS, cursive;" stroke="none" stroke-width="1px">Prev</text></g><g><path d="M1033.917968698717 381.03438955467703 L1099.6281971571127 381.61760547434494 L1094.9738760216426 422.52533319482853 L1032.7788329658858 420.48002676445196" stroke="none" stroke-width="0" fill="rgb(153, 204, 255)"/><path d="M1036.149816745043 382.04909660071723 C1054.9121178026787 383.8305520897384, 1079.2477359362342 380.3617670874557, 1099.39584874565 383.6586367575127 M1098.0352898526614 385.43952825156924 C1099.246068566808 394.74206306869377, 1094.5653806160688 411.006421020486, 1096.425268910544 420.33493009113045 M1094.6755782691034 425.19299562216065 C1072.7718028920813 421.7452863616902, 1055.081523642903 420.62277900725405, 1032.5395445779427 422.3733183620802 M1033.5830314119123 423.51822552900444 C1036.224416467089 406.4933748532409, 1033.926753982851 392.0533399232148, 1037.5203400927292 384.5516331017896" stroke="rgb(0, 0, 0)" stroke-width="1" fill="none"/></g><g class="text-container" transform="matrix(1, 0, 0, 1, 1066.65, 393.199)"><text font-family="'Arial'" font-size="16px" font-style="normal" font-weight="bold" text-decoration="none" text-anchor="middle" fill="rgb(255,255,255)" fill-opacity="1" dy="0.875em" transform="" style="font-style: normal;font-weight: 700;font-size: 16px;font-family: Comic Sans MS, cursive;" stroke="none" stroke-width="1px">Prev</text></g><g><path d="M1034.7604892026743 524.2789466305376 L1099.3862381549184 526.6207526628281 L1097.2507212835153 567.3950450354876 L1033.6525727746787 567.6541088174447" stroke="none" stroke-width="0" fill="rgb(153, 204, 255)"/><path d="M1033.961173611711 526.1858322180399 C1058.7039029564578 527.6932842425595, 1081.9273194383484 525.6106570439181, 1096.949656587553 523.2632850504734 M1096.2639949753152 525.3882455738888 C1100.1474283009693 542.4107807970987, 1096.6500447910407 557.0525742179046, 1096.0459705327648 567.7903751928584 M1099.7332908496337 564.6565797237317 C1084.7033063425997 564.3832984881283, 1071.8843739647473 567.6599462661169, 1038.2496655174596 564.9498804249434 M1037.9919058658934 564.2931463283072 C1036.5638410450229 553.147605930433, 1036.780260364061 546.4628072896419, 1033.631043724426 527.2560552057632" stroke="rgb(0, 0, 0)" stroke-width="1" fill="none"/></g><g class="text-container" transform="matrix(1, 0, 0, 1, 1066.65, 536.199)"><text font-family="'Arial'" font-size="16px" font-style="normal" font-weight="bold" text-decoration="none" text-anchor="middle" fill="rgb(255,255,255)" fill-opacity="1" dy="0.875em" transform="" style="font-style: normal;font-weight: 700;font-size: 16px;font-family: Comic Sans MS, cursive;" stroke="none" stroke-width="1px">Prev</text></g><g><path d="M1038.098005041146 653.6215345606367 L1105.0731218914395 656.0254781440689 L1100.6601156588438 694.7892975711624 L1038.1445033744517 692.3572099299663" stroke="none" stroke-width="0" fill="rgb(153, 204, 255)"/><path d="M1040.3492617010472 654.6266339949867 C1056.3341443790805 651.6431836577071, 1070.2803130773696 654.5345703979809, 1104.0328825427182 656.2898127600539 M1039.761241165954 655.8182829956386 C1054.2708020088696 655.7646479289778, 1070.117006041705 655.7373064386016, 1101.162013930789 655.52159431315 M1099.511721130622 654.459538331987 C1100.484198228637 661.4009537576994, 1104.6913694304671 671.0990921170833, 1099.6187874586067 694.9687950956717 M1102.3517301609834 654.5077757079348 C1102.386407367731 668.9767021939522, 1103.4922590247231 682.9962518464473, 1102.6366683812437 695.532064320646 M1102.639322884223 693.7523437683524 C1078.347472978567 692.2122892921283, 1058.1972748670341 695.8305173726975, 1041.901071462684 696.4381683511066 M1101.2261811188964 694.579117689664 C1077.3608279526304 693.021702264583, 1053.5844117074407 693.1026827739962, 1039.2414617358875 695.4764975307705 M1043.3513406351362 691.9317848912638 C1038.4013574837556 683.4413445891219, 1040.3627609886862 666.4555070640536, 1041.4256271531922 655.1227787228379 M1041.8724816094007 695.092436851788 C1041.606227739836 682.5381794118961, 1039.0569170963051 669.0876268224425, 1041.422175576876 654.7676355709257" stroke="rgb(0, 0, 0)" stroke-width="1" fill="none"/></g><g class="text-container" transform="matrix(1, 0, 0, 1, 1071.65, 664.699)"><text font-family="'Arial'" font-size="16px" font-style="normal" font-weight="bold" text-decoration="none" text-anchor="middle" fill="rgb(255,255,255)" fill-opacity="1" dy="0.875em" transform="" style="font-style: normal;font-weight: 700;font-size: 16px;font-family: Comic Sans MS, cursive;" stroke="none" stroke-width="1px">Prev</text></g></svg>